HIERARCHY
ROOT Hips
{
	OFFSET 0.00 0.00 0.00
	CHANNELS 6 Xposition Yposition Zposition Xrotation Yrotation Zrotation
	JOINT Spine
	{
		OFFSET 0.00000 7.53995 0.00000
		CHANNELS 3 Xrotation Yrotation Zrotation
		JOINT Head
		{
			OFFSET 0.00000 15.09381 0.00000
			CHANNELS 3 Xrotation Yrotation Zrotation
			End Site
			{
				OFFSET 0.00000 4.52755 0.00000
			}
		}
		JOINT LeftShoulder
		{
			OFFSET 0.00000 9.73893 0.00000
			CHANNELS 3 Xrotation Yrotation Zrotation
			JOINT LeftArm
			{
				OFFSET 7.08401 0.00000 0.00000
				CHANNELS 3 Xrotation Yrotation Zrotation
				JOINT LeftForeArm
				{
					OFFSET 10.25932 0.00000 0.00000
					CHANNELS 3 Yrotation Zrotation Xrotation
					JOINT LeftHand
					{
						OFFSET 9.89698 0.00000 0.00000
						CHANNELS 3 Xrotation Yrotation Zrotation
						JOINT LeftHandThumb1
						{
							OFFSET 0.00000 0.00000 0.00000
							CHANNELS 3 Xrotation Zrotation Yrotation
							End Site
							{
								OFFSET 0.00000 0.00000 3.93700
							}
						}
						End Site
						{
							OFFSET 3.93700 0.00000 0.00000
						}
					}
				}
			}
		}
		JOINT RightShoulder
		{
			OFFSET 0.00000 9.73893 0.00000
			CHANNELS 3 Xrotation Yrotation Zrotation
			JOINT RightArm
			{
				OFFSET -7.08401 0.00000 0.00000
				CHANNELS 3 Xrotation Yrotation Zrotation
				JOINT RightForeArm
				{
					OFFSET -10.25932 0.00000 0.00000
					CHANNELS 3 Yrotation Zrotation Xrotation
					JOINT RightHand
					{
						OFFSET -9.89698 0.00000 0.00000
						CHANNELS 3 Xrotation Yrotation Zrotation
						JOINT RightHandThumb1
						{
							OFFSET 0.00000 0.00000 0.00000
							CHANNELS 3 Xrotation Zrotation Yrotation
							End Site
							{
								OFFSET 0.00000 0.00000 3.93700
							}
						}
						End Site
						{
							OFFSET -3.93700 0.00000 0.00000
						}
					}
				}
			}
		}
	}
	JOINT LeftUpLeg
	{
		OFFSET 3.34548 0.00000 0.00000
		CHANNELS 3 Xrotation Yrotation Zrotation
		JOINT LeftLeg
		{
			OFFSET 0.00000 -19.11473 0.00000
			CHANNELS 3 Xrotation Yrotation Zrotation
			JOINT LeftFoot
			{
				OFFSET 0.00000 -16.04560 0.00000
				CHANNELS 3 Xrotation Yrotation Zrotation
				JOINT LeftToeBase
				{
					OFFSET 0.00000 -1.43467 5.35428
					CHANNELS 3 Xrotation Yrotation Zrotation
					End Site
					{
						OFFSET 0.00000 0.00000 2.95275
					}
				}
			}
		}
	}
	JOINT RightUpLeg
	{
		OFFSET -3.34548 0.00000 0.00000
		CHANNELS 3 Xrotation Yrotation Zrotation
		JOINT RightLeg
		{
			OFFSET 0.00000 -19.11473 0.00000
			CHANNELS 3 Xrotation Yrotation Zrotation
			JOINT RightFoot
			{
				OFFSET 0.00000 -16.04560 0.00000
				CHANNELS 3 Xrotation Yrotation Zrotation
				JOINT RightToeBase
				{
					OFFSET 0.00000 -1.43467 5.35428
					CHANNELS 3 Xrotation Yrotation Zrotation
					End Site
					{
						OFFSET 0.00000 0.00000 2.95275
					}
				}
			}
		}
	}
}
MOTION
Frames: 7
Frame Time: 0.008333
 0.3969 36.4641 -0.1247 -4.9161 -14.8752 -14.5115 9.6294 13.5158 10.1230 -4.9365 -18.2216 2.9802 -5.6854 5.4577 3.5505 -7.6504 32.8989 -49.1151 -126.2187 -0.0000 16.7898 -11.4287 18.2131 32.8945 33.1476 -0.0000 26.2537 19.4500 -0.4164 -1.8666 -9.7970 2.5568 62.8063 33.5429 -0.0000 158.4184 -0.1678 1.0878 8.7717 32.8623 0.0000 -24.3270 -11.3444 14.1515 9.9913 31.5717 -0.0000 -0.0000 -27.8280 17.4699 2.6089 12.0120 -0.0000 -0.0000 -84.7956 -14.8519 -26.6698 87.7876 0.0000 0.0000 -1.5574 -15.0949 7.4260 6.1742 -0.0000 0.0000
 0.3976 36.4578 -0.1205 -4.9130 -14.9591 -14.4450 9.6453 13.5204 10.0223 -4.8986 -18.0051 2.9771 -5.7069 5.4558 3.5358 -7.7205 32.9514 -49.0690 -126.2627 -0.0000 16.7470 -11.3991 18.2558 32.7660 33.1476 -0.0000 26.2537 19.4598 -0.4342 -1.8458 -9.7729 2.5360 62.8287 33.4862 -0.0000 158.3738 -0.1667 1.0796 8.7756 32.8623 0.0000 -24.3270 -11.3346 14.1848 9.9169 31.5810 -0.0000 -0.0000 -27.8521 17.5326 2.6110 11.9636 -0.0000 -0.0000 -84.9988 -15.3026 -26.8658 88.3417 -0.0000 0.0000 -1.5103 -15.2599 7.7010 5.7746 0.0000 -0.0000
 0.3992 36.4522 -0.1140 -4.9066 -15.0381 -14.3582 9.6521 13.5121 9.9067 -4.8561 -17.7932 2.9256 -5.7332 5.4748 3.5255 -7.7562 32.9649 -49.0489 -126.2806 -0.0000 16.7704 -11.3512 18.2401 32.6750 33.1476 -0.0000 26.2537 19.4673 -0.4464 -1.8264 -9.7416 2.4893 62.8531 33.4406 -0.0000 158.3851 -0.1763 1.1376 8.8084 32.8623 0.0000 -24.3270 -11.3087 14.2092 9.8157 31.5733 -0.0000 0.0000 -27.8794 17.5944 2.6724 11.9622 0.0000 -0.0000 -85.1875 -15.6920 -27.0621 89.0288 -0.0000 0.0000 -1.4182 -15.3749 7.9767 5.7185 0.0000 -0.0000
 0.4000 36.4500 -0.1070 -4.8841 -15.1203 -14.3088 9.6105 13.5081 9.8738 -4.8478 -17.6771 2.7169 -5.7558 5.4940 3.4671 -7.7814 32.9746 -49.0045 -126.2957 -0.0000 16.8720 -11.3377 18.2945 32.5683 33.1476 -0.0000 26.2537 19.4891 -0.4690 -1.8299 -9.7087 2.4315 62.8832 33.3867 -0.0000 158.4369 -0.1813 1.1796 8.7401 32.8623 0.0000 -24.3270 -11.3064 14.2296 9.7616 31.5617 0.0000 0.0000 -27.8941 17.6442 2.7080 11.9604 -0.0000 -0.0000 -85.3564 -16.0848 -27.2307 89.8205 -0.0000 -0.0000 -1.1917 -15.3926 8.1653 5.7258 0.0000 -0.0000
 0.3982 36.4465 -0.0971 -4.8666 -15.2028 -14.2344 9.5672 13.5115 9.7911 -4.7607 -17.5045 2.6429 -5.7697 5.5066 3.4438 -7.8112 32.9841 -48.9711 -126.2937 -0.0000 16.9308 -11.3244 18.3388 32.4764 33.1476 -0.0000 26.2537 19.5150 -0.4986 -1.8109 -9.6724 2.3886 62.9259 33.3123 -0.0000 158.3925 -0.1733 1.1230 8.7719 32.8623 0.0000 -24.3270 -11.2913 14.2681 9.6879 31.5540 -0.0000 0.0000 -27.9193 17.6801 2.7247 11.9682 0.0000 -0.0000 -85.5174 -16.4334 -27.4025 90.7464 -0.0000 -0.0000 -0.8525 -15.3649 8.3963 5.5506 -0.0000 0.0000
 0.3981 36.4453 -0.0885 -4.8291 -15.2919 -14.1684 9.4946 13.5064 9.7493 -4.7036 -17.3641 2.4634 -5.7697 5.5363 3.3920 -7.8392 32.9768 -48.9353 -126.2858 -0.0000 16.9130 -11.3184 18.3484 32.4493 33.1476 -0.0000 26.2537 19.5579 -0.5350 -1.8098 -9.6750 2.3458 62.9584 33.2163 -0.0000 158.4067 -0.1760 1.1603 8.6260 32.8623 0.0000 -24.3270 -11.2933 14.3007 9.6208 31.5251 -0.0000 -0.0000 -27.8984 17.7253 2.7989 11.8805 0.0000 0.0000 -85.6286 -16.7025 -27.5126 91.7799 -0.0000 0.0000 -0.4135 -15.2317 8.6599 5.4308 0.0000 -0.0000
 0.3976 36.4453 -0.0796 -4.7901 -15.3768 -14.1167 9.4121 13.4953 9.7370 -4.6467 -17.1484 2.2824 -5.7812 5.5578 3.3360 -7.8266 32.9981 -48.9097 -126.2813 -0.0000 16.9055 -11.2437 18.3189 32.3133 33.1476 -0.0000 26.2537 19.5934 -0.5580 -1.8205 -9.6405 2.3050 62.9856 33.1303 -0.0000 158.5108 -0.1800 1.1812 8.6654 32.8623 0.0000 -24.3270 -11.2992 14.3300 9.5708 31.4977 -0.0000 0.0000 -27.8998 17.7694 2.8152 11.9042 -0.0000 -0.0000 -85.7729 -17.0338 -27.6483 92.9091 0.0000 -0.0000 0.1388 -15.1944 8.8838 5.3157 0.0000 0.0000
